# xmcd CD database file
#
# Track frame offsets:
#	150
#	21450
#	38800
#	60550
#	81800
#	108262
#	121600
#	137550
#	155550
#	200525
#	218600
#	237187
#	263162
#	284587
#
# Disc length: 4338 seconds
#
# Revision: 1
# Processed by: cddbd v1.5.2PL0 Copyright (c) Steve Scherf et al.
# Submitted via: CDex 1.51
#
DISCID=c010f00e
DTITLE=Jazz Crusade - It looks like a big time tonight
DYEAR=1900
DGENRE=Jazz
TTITLE0=Martha
TTITLE1=Sweet Fields
TTITLE2=Where The River Shannon Flows
TTITLE3=About A Quarter to 88
TTITLE4=Song Of The Islands
TTITLE5=Down Home Rag
TTITLE6=Under The Bamboo Tree
TTITLE7=It Looks Like A Big Time Tonight
TTITLE8=Breeze
TTITLE9=Love Nest
TTITLE10=Margie
TTITLE11=Mama Inez
TTITLE12=Get Out Of Here
TTITLE13=Whatever Happened To Johnny Parker? Blues
EXTD=
EXTT0=
EXTT1=
EXTT2=
EXTT3=
EXTT4=
EXTT5=
EXTT6=
EXTT7=
EXTT8=
EXTT9=
EXTT10=
EXTT11=
EXTT12=
EXTT13=
PLAYORDER=
